<svg width="224" height="57" viewBox="0 0 224 57" fill="none" xmlns="http://www.w3.org/2000/svg">
<circle cx="19" cy="19" r="19" fill="#64DA1A"/>
<circle cx="28" cy="38" r="19" fill="#F80C33"/>
<circle cx="50" cy="26" r="26" fill="#FFC629"/>
<path d="M36.712 27.624C36.712 30.2053 36.9613 32.0533 37.46 33.168C37.988 34.2533 38.8387 34.796 40.012 34.796C41.1853 34.796 42.8427 34.5173 44.984 33.96L46.128 40.164C43.8107 41.0147 41.4787 41.44 39.132 41.44C35.612 41.44 33.0453 40.2813 31.432 37.964C29.848 35.6173 29.056 32.1413 29.056 27.536C29.056 22.9013 29.892 19.3667 31.564 16.932C33.236 14.468 35.964 13.236 39.748 13.236C41.9773 13.236 44.104 13.7053 46.128 14.644L44.94 21.464C42.652 20.7013 41.0533 20.32 40.144 20.32C38.8533 20.32 37.9587 20.892 37.46 22.036C36.9613 23.1507 36.712 25.0133 36.712 27.624ZM61.8869 41H47.9829V13.676H55.5069V34.884H62.3269L61.8869 41ZM78.7083 41H63.9243V13.676H79.1483L78.7083 20.408H71.4483V24.5H77.7403V30.308H71.4483V34.84H79.1483L78.7083 41ZM101.337 41H93.9893L93.1533 36.688H87.9613L87.1253 41H80.1293L85.1453 13.676H96.3213L101.337 41ZM92.3173 31.54L90.7773 21.772H90.4693L88.9293 31.54H92.3173ZM123.559 41H116.343L110.667 28.284H110.315V41H103.627V13.676H111.063L116.475 26.788H116.827V13.676H123.559V41ZM136.848 32.068H134.824V41H127.432V13.676H136.364C139.503 13.676 141.835 14.3947 143.36 15.832C144.885 17.2693 145.648 19.6307 145.648 22.916C145.648 26.2013 144.929 28.548 143.492 29.956C142.055 31.364 139.84 32.068 136.848 32.068ZM137.684 26.128C137.948 25.6293 138.08 24.7347 138.08 23.444C138.08 22.1533 137.933 21.244 137.64 20.716C137.347 20.188 136.76 19.924 135.88 19.924H134.824V26.876H136.056C136.877 26.876 137.42 26.6267 137.684 26.128ZM149.47 16.536C151.172 14.336 153.944 13.236 157.786 13.236C161.629 13.236 164.372 14.3213 166.014 16.492C167.686 18.6627 168.522 22.1973 168.522 27.096C168.522 31.9653 167.672 35.5733 165.97 37.92C164.269 40.2667 161.512 41.44 157.698 41.44C153.885 41.44 151.142 40.2813 149.47 37.964C147.798 35.6467 146.962 32.0533 146.962 27.184C146.962 22.2853 147.798 18.736 149.47 16.536ZM160.954 27.096C160.954 24.3973 160.734 22.5787 160.294 21.64C159.884 20.672 159.018 20.188 157.698 20.188C156.408 20.188 155.572 20.672 155.19 21.64C154.809 22.5787 154.618 24.3827 154.618 27.052V28.108C154.618 30.9533 154.824 32.8307 155.234 33.74C155.674 34.62 156.54 35.06 157.83 35.06C159.15 35.06 160.001 34.6347 160.382 33.784C160.764 32.9333 160.954 31.1733 160.954 28.504V27.096ZM179.438 41H171.958V13.676H179.438V41ZM203.696 41H196.48L190.804 28.284H190.452V41H183.764V13.676H191.2L196.612 26.788H196.964V13.676H203.696V41ZM223.453 20.32H218.349V41H210.825V20.32H205.413L205.853 13.676H223.893L223.453 20.32Z" fill="#1F192F"/>
</svg>